<?xml version="1.0" encoding="utf-8"?>
<!-- Generator: Adobe Illustrator 23.1.0, SVG Export Plug-In . SVG Version: 6.00 Build 0)  -->
<svg version="1.1" id="Capa_1" xmlns="http://www.w3.org/2000/svg" xmlns:xlink="http://www.w3.org/1999/xlink" x="0px" y="0px"
	 viewBox="0 0 220.67 150.53" style="enable-background:new 0 0 220.67 150.53;" xml:space="preserve">
<style type="text/css">
	.st0{display:none;fill:#15293A;}
	.st1{fill:#15293A;}
</style>
<path class="st0" d="M250.49,178.79c-0.78,1.57-1.89,2.89-3.33,3.95c-1.44,1.06-3.2,1.87-5.28,2.43s-4.42,0.83-7.02,0.83
	c-1.4,0-2.78-0.06-4.16-0.17s-2.75-0.28-4.12-0.5c-0.32-0.06-0.59-0.11-0.83-0.14c-0.24-0.03-0.48-0.08-0.74-0.14v0.05
	c-0.92-0.16-1.71-0.31-2.36-0.45c-0.65-0.14-1.15-0.25-1.5-0.31c-0.29-0.06-0.54-0.22-0.76-0.48c-0.22-0.25-0.35-0.52-0.38-0.81
	l-0.76-9.04c-0.06-0.6,0.13-1.05,0.57-1.36c0.44-0.3,0.94-0.33,1.48-0.07c1.55,0.76,3.71,1.63,6.47,2.62
	c2.86,0.95,5.44,1.43,7.76,1.43c1.43,0,2.58-0.17,3.45-0.52c0.87-0.35,1.31-0.86,1.31-1.52c0-0.35-0.25-0.7-0.76-1.05
	c-0.83-0.51-2.7-1.05-5.62-1.62c-5.49-1.11-9.3-2.55-11.42-4.33c-2.32-1.9-3.47-4.57-3.47-8c0-4,1.42-7.03,4.26-9.09
	s6.8-3.09,11.87-3.09c2.22,0,4.58,0.22,7.09,0.67c1.21,0.22,2.26,0.43,3.16,0.62s1.66,0.38,2.26,0.57c0.25,0.06,0.48,0.22,0.69,0.48
	c0.21,0.25,0.33,0.51,0.36,0.76l0.95,8.33c0.06,0.6-0.13,1.07-0.57,1.4s-0.94,0.36-1.48,0.07c-0.98-0.48-2.01-0.92-3.09-1.33
	c-1.08-0.41-2.21-0.79-3.38-1.14c-2.35-0.67-4.46-1-6.33-1c-1.43,0-2.53,0.11-3.31,0.33s-1.17,0.6-1.17,1.14
	c0,0.51,0.4,0.9,1.19,1.19c0.73,0.25,1.62,0.53,2.67,0.83c1.05,0.3,2.28,0.58,3.71,0.83c5.14,1.02,8.66,2.47,10.57,4.38
	c2.13,2.03,3.19,4.63,3.19,7.8C251.66,175.4,251.27,177.22,250.49,178.79z"/>
<path class="st1" d="M32.49,129.95c-0.73,1.48-1.78,2.72-3.13,3.72c-1.36,1-3.01,1.76-4.97,2.28c-1.96,0.52-4.16,0.78-6.6,0.78
	c-1.31,0-2.62-0.05-3.92-0.16c-1.3-0.11-2.59-0.26-3.87-0.47c-0.3-0.06-0.56-0.1-0.78-0.13c-0.22-0.03-0.46-0.07-0.69-0.13v0.04
	c-0.87-0.15-1.61-0.29-2.22-0.43c-0.61-0.13-1.08-0.23-1.41-0.29c-0.27-0.06-0.51-0.21-0.72-0.45c-0.21-0.24-0.33-0.49-0.36-0.76
	l-0.72-8.51c-0.06-0.57,0.12-0.99,0.54-1.28c0.42-0.28,0.88-0.31,1.39-0.07c1.46,0.72,3.49,1.54,6.09,2.46
	c2.69,0.9,5.12,1.34,7.3,1.34c1.34,0,2.42-0.16,3.25-0.49c0.82-0.33,1.23-0.81,1.23-1.43c0-0.33-0.24-0.66-0.72-0.99
	c-0.78-0.48-2.54-0.98-5.28-1.52c-5.17-1.04-8.75-2.4-10.75-4.07c-2.18-1.79-3.27-4.3-3.27-7.52c0-3.76,1.33-6.61,4.01-8.55
	s6.4-2.91,11.17-2.91c2.09,0,4.31,0.21,6.67,0.63c1.13,0.21,2.13,0.4,2.98,0.58c0.85,0.18,1.56,0.36,2.13,0.54
	c0.24,0.06,0.45,0.21,0.65,0.45c0.19,0.24,0.31,0.48,0.34,0.72l0.9,7.83c0.06,0.57-0.12,1.01-0.54,1.32s-0.88,0.34-1.39,0.07
	c-0.93-0.45-1.9-0.87-2.91-1.25c-1.02-0.39-2.08-0.75-3.18-1.07c-2.21-0.63-4.19-0.94-5.96-0.94c-1.34,0-2.38,0.1-3.11,0.31
	c-0.73,0.21-1.1,0.57-1.1,1.07c0,0.48,0.37,0.85,1.12,1.12c0.69,0.24,1.52,0.5,2.51,0.78c0.99,0.28,2.15,0.54,3.49,0.78
	c4.84,0.96,8.15,2.33,9.94,4.12c2,1.91,3,4.36,3,7.34C33.58,126.77,33.22,128.48,32.49,129.95z M45.18,136.2
	c-0.36,0-0.67-0.13-0.94-0.4s-0.4-0.58-0.4-0.94v-24.94h-9.27c-0.39,0-0.71-0.13-0.96-0.4s-0.38-0.6-0.38-0.99v-6.09
	c0-0.36,0.13-0.67,0.38-0.94s0.58-0.4,0.96-0.4h30.99c0.39,0,0.72,0.13,0.99,0.4c0.27,0.27,0.4,0.58,0.4,0.94v6.09
	c0,0.39-0.13,0.72-0.4,0.99c-0.27,0.27-0.6,0.4-0.99,0.4h-9.22v24.94c0,0.36-0.13,0.67-0.38,0.94c-0.25,0.27-0.58,0.4-0.96,0.4
	H45.18z M69.76,136.2c-0.33,0-0.6-0.13-0.83-0.4c-0.22-0.27-0.34-0.58-0.34-0.94v-32.42c0-0.36,0.11-0.67,0.34-0.94
	c0.22-0.27,0.5-0.4,0.83-0.4h8.33c0.33,0,0.6,0.13,0.83,0.4c0.22,0.27,0.34,0.58,0.34,0.94v32.42c0,0.36-0.11,0.67-0.34,0.94
	c-0.22,0.27-0.5,0.4-0.83,0.4H69.76z M93.63,125.81h16.93c0.36,0,0.68,0.13,0.96,0.38c0.28,0.25,0.42,0.58,0.42,0.96v7.7
	c0,0.36-0.13,0.67-0.4,0.94s-0.58,0.4-0.94,0.4H82.61c-0.39,0-0.72-0.13-0.99-0.4s-0.4-0.58-0.4-0.94v-32.42
	c0-0.36,0.13-0.67,0.38-0.94s0.58-0.4,0.96-0.4h9.72c0.36,0,0.68,0.13,0.96,0.4c0.28,0.27,0.42,0.58,0.42,0.94L93.63,125.81z
	 M116.55,136.2c-0.36,0-0.67-0.13-0.94-0.4s-0.4-0.58-0.4-0.94v-24.94h-9.27c-0.39,0-0.71-0.13-0.96-0.4s-0.38-0.6-0.38-0.99v-6.09
	c0-0.36,0.13-0.67,0.38-0.94s0.58-0.4,0.96-0.4h30.99c0.39,0,0.72,0.13,0.99,0.4c0.27,0.27,0.4,0.58,0.4,0.94v6.09
	c0,0.39-0.13,0.72-0.4,0.99c-0.27,0.27-0.6,0.4-0.99,0.4h-9.22v24.94c0,0.36-0.13,0.67-0.38,0.94c-0.25,0.27-0.58,0.4-0.96,0.4
	H116.55z M141.32,136.2c-0.36,0-0.67-0.13-0.94-0.4s-0.4-0.58-0.4-0.94v-32.42c0-0.36,0.13-0.67,0.4-0.94s0.58-0.4,0.94-0.4h26.1
	c0.36,0,0.67,0.13,0.94,0.4s0.4,0.58,0.4,0.94v6.54c0,0.39-0.13,0.72-0.4,0.98c-0.27,0.27-0.58,0.4-0.94,0.4h-15.04v3.58h12.85
	c0.36,0,0.67,0.13,0.94,0.4s0.4,0.58,0.4,0.94v6.45c0,0.39-0.13,0.72-0.4,0.99s-0.58,0.4-0.94,0.4l-12.85,0.04v3.76h16.25
	c0.39,0,0.71,0.13,0.96,0.4c0.25,0.27,0.38,0.6,0.38,0.98v6.54c0,0.36-0.13,0.67-0.38,0.94c-0.25,0.27-0.58,0.4-0.96,0.4H141.32z
	 M215.99,101.09c0.66,0,1.1,0.26,1.34,0.78c0.24,0.52,0.15,1.02-0.27,1.5l-12.58,14.46L217.47,134c0.36,0.48,0.42,0.96,0.2,1.46
	c-0.22,0.49-0.65,0.74-1.28,0.74h-11.33c-0.15,0-0.35-0.06-0.6-0.18s-0.42-0.24-0.51-0.36l-8.33-10.43l-20.78,23.58
	c-0.06,0.12-0.21,0.23-0.45,0.34c-0.24,0.1-0.43,0.16-0.58,0.16h-10.57c-0.33,0-0.6-0.07-0.83-0.22c-0.22-0.15-0.39-0.34-0.49-0.56
	c-0.1-0.22-0.14-0.46-0.11-0.72c0.03-0.25,0.15-0.5,0.36-0.74l25.66-29.22l-13.12-14.46c-0.21-0.24-0.33-0.49-0.38-0.76
	s-0.02-0.51,0.09-0.74c0.1-0.22,0.27-0.41,0.49-0.56c0.22-0.15,0.5-0.22,0.83-0.22h11.78c0.15,0,0.34,0.05,0.56,0.16
	s0.37,0.2,0.42,0.29l8.15,8.87l7.88-8.87c0.06-0.09,0.21-0.19,0.45-0.29s0.43-0.16,0.58-0.16H215.99z M110.33,1.24
	C86.57,1.24,67.3,20.5,67.3,44.27S86.57,87.3,110.33,87.3s43.03-19.27,43.03-43.03S134.1,1.24,110.33,1.24z M94.52,24.6
	c0-1.53,1.24-2.77,2.77-2.77s2.77,1.24,2.77,2.77v25.63c0,1.53-1.24,2.77-2.77,2.77s-2.77-1.24-2.77-2.77V24.6z M87.79,24.6
	c0-1.53,1.24-2.77,2.77-2.77s2.77,1.24,2.77,2.77v32.6c0,1.53-1.24,2.77-2.77,2.77s-2.77-1.24-2.77-2.77V24.6z M116.19,66.7H90.56
	c-1.53,0-2.77-1.24-2.77-2.77c0-1.53,1.24-2.77,2.77-2.77h25.63c1.53,0,2.77,1.24,2.77,2.77C118.96,65.46,117.72,66.7,116.19,66.7z
	 M116.19,59.97H97.54c-1.53,0-2.77-1.24-2.77-2.77s1.24-2.77,2.77-2.77h18.65c1.53,0,2.77,1.24,2.77,2.77S117.72,59.97,116.19,59.97
	z M126.11,63.93c0,1.51-1.22,2.73-2.73,2.73s-2.73-1.22-2.73-2.73v-24.9c0-1.51,1.22-2.73,2.73-2.73s2.73,1.22,2.73,2.73V63.93z
	 M123.38,35.07h-18.9c-1.53,0-2.77-1.24-2.77-2.77s1.24-2.77,2.77-2.77h18.9c1.53,0,2.77,1.24,2.77,2.77S124.91,35.07,123.38,35.07z
	 M132.83,63.93c0,1.51-1.22,2.73-2.73,2.73s-2.73-1.22-2.73-2.73V32.3c0-1.51,1.22-2.73,2.73-2.73s2.73,1.22,2.73,2.73V63.93z
	 M130.1,28.34h-25.63c-1.53,0-2.77-1.24-2.77-2.77c0-1.53,1.24-2.77,2.77-2.77h25.63c1.53,0,2.77,1.24,2.77,2.77
	C132.87,27.1,131.63,28.34,130.1,28.34z"/>
</svg>
